<svg width="31" height="21" viewBox="0 0 31 21" fill="none" xmlns="http://www.w3.org/2000/svg">
<path d="M0.916656 1.74271C0.916656 0.940622 1.56707 0.291664 2.3677 0.291664H14.0489C14.4338 0.291664 14.8029 0.444541 15.075 0.716664C15.3471 0.988787 15.5 1.35787 15.5 1.74271C15.5 2.12755 15.3471 2.49662 15.075 2.76875C14.8029 3.04087 14.4338 3.19375 14.0489 3.19375H2.3677C1.98286 3.19375 1.61378 3.04087 1.34166 2.76875C1.06953 2.49662 0.916656 2.12755 0.916656 1.74271ZM0.916656 10.5C0.916656 9.69791 1.56707 9.04896 2.3677 9.04896H28.6323C29.0171 9.04896 29.3862 9.20183 29.6583 9.47396C29.9304 9.74608 30.0833 10.1152 30.0833 10.5C30.0833 10.8848 29.9304 11.2539 29.6583 11.526C29.3862 11.7982 29.0171 11.951 28.6323 11.951H2.3677C1.98286 11.951 1.61378 11.7982 1.34166 11.526C1.06953 11.2539 0.916656 10.8848 0.916656 10.5ZM2.3677 17.8062C1.98286 17.8062 1.61378 17.9591 1.34166 18.2312C1.06953 18.5034 0.916656 18.8724 0.916656 19.2573C0.916656 19.6421 1.06953 20.0112 1.34166 20.2833C1.61378 20.5555 1.98286 20.7083 2.3677 20.7083H19.8823C20.2671 20.7083 20.6362 20.5555 20.9083 20.2833C21.1804 20.0112 21.3333 19.6421 21.3333 19.2573C21.3333 18.8724 21.1804 18.5034 20.9083 18.2312C20.6362 17.9591 20.2671 17.8062 19.8823 17.8062H2.3677Z" fill="#65D6FC"/>
</svg>
